<?xml version="1.0" standalone="no"?>
<svg viewBox="0 0 200 200" xmlns="http://www.w3.org/2000/svg">
  <path fill="#FF0066" d="M27.5,-46.1C39.2,-40.8,54.9,-40.8,61.6,-34C68.4,-27.2,66.2,-13.6,62,-2.4C57.9,8.8,51.7,17.5,49.2,31.7C46.7,45.8,47.8,65.2,40.2,68.5C32.6,71.8,16.3,59,2,55.5C-12.4,52.1,-24.7,58.2,-37.8,58C-50.8,57.9,-64.5,51.5,-67.2,40.8C-69.9,30.1,-61.6,15.1,-59.2,1.3C-56.9,-12.4,-60.6,-24.8,-57.4,-34.6C-54.2,-44.4,-44.1,-51.6,-33.3,-57.5C-22.6,-63.4,-11.3,-68.1,-1.7,-65.1C7.9,-62.1,15.7,-51.5,27.5,-46.1Z" transform="translate(100 100)" />
</svg>
